<svg width="104" height="71" viewBox="0 0 104 71" fill="none" xmlns="http://www.w3.org/2000/svg">
<path d="M58.856 9.8V35H56.264V12.104H50.324V9.8H58.856ZM82.0878 32.696V35H64.4118V33.164L74.8878 22.904C76.2078 21.608 77.0958 20.492 77.5518 19.556C78.0318 18.596 78.2718 17.636 78.2718 16.676C78.2718 15.188 77.7558 14.036 76.7238 13.22C75.7158 12.38 74.2638 11.96 72.3678 11.96C69.4158 11.96 67.1238 12.896 65.4918 14.768L63.6558 13.184C64.6398 12.032 65.8878 11.144 67.3998 10.52C68.9358 9.896 70.6638 9.584 72.5838 9.584C75.1518 9.584 77.1798 10.196 78.6678 11.42C80.1798 12.62 80.9358 14.276 80.9358 16.388C80.9358 17.684 80.6478 18.932 80.0718 20.132C79.4958 21.332 78.4038 22.712 76.7958 24.272L68.2278 32.696H82.0878ZM91.9648 20.132C95.6128 20.132 98.2648 20.792 99.9208 22.112C101.601 23.408 102.441 25.232 102.441 27.584C102.441 29.048 102.093 30.356 101.397 31.508C100.725 32.66 99.7048 33.572 98.3368 34.244C96.9688 34.892 95.2888 35.216 93.2968 35.216C91.4968 35.216 89.7808 34.928 88.1488 34.352C86.5408 33.752 85.2448 32.96 84.2608 31.976L85.5208 29.924C86.3608 30.788 87.4648 31.496 88.8328 32.048C90.2008 32.576 91.6768 32.84 93.2608 32.84C95.3488 32.84 96.9568 32.372 98.0848 31.436C99.2368 30.5 99.8128 29.252 99.8128 27.692C99.8128 25.964 99.1648 24.656 97.8688 23.768C96.5968 22.88 94.4368 22.436 91.3888 22.436H86.0248L87.3208 9.8H101.109V12.104H89.5888L88.7248 20.132H91.9648Z" fill="black"/>
<path d="M6.72 67.096C5.61067 67.096 4.60267 66.8507 3.696 66.36C2.8 65.8587 2.096 65.176 1.584 64.312C1.08267 63.448 0.832 62.4773 0.832 61.4C0.832 60.3227 1.08267 59.352 1.584 58.488C2.096 57.624 2.8 56.9467 3.696 56.456C4.60267 55.9547 5.61067 55.704 6.72 55.704C7.82933 55.704 8.82667 55.9493 9.712 56.44C10.608 56.9307 11.312 57.6133 11.824 58.488C12.336 59.352 12.592 60.3227 12.592 61.4C12.592 62.4773 12.336 63.4533 11.824 64.328C11.312 65.192 10.608 65.8693 9.712 66.36C8.82667 66.8507 7.82933 67.096 6.72 67.096ZM6.72 66.04C7.60533 66.04 8.40533 65.8427 9.12 65.448C9.83467 65.0427 10.3947 64.488 10.8 63.784C11.2053 63.0693 11.408 62.2747 11.408 61.4C11.408 60.5253 11.2053 59.736 10.8 59.032C10.3947 58.3173 9.83467 57.7627 9.12 57.368C8.40533 56.9627 7.60533 56.76 6.72 56.76C5.83467 56.76 5.02933 56.9627 4.304 57.368C3.58933 57.7627 3.024 58.3173 2.608 59.032C2.20267 59.736 2 60.5253 2 61.4C2 62.2747 2.20267 63.0693 2.608 63.784C3.024 64.488 3.58933 65.0427 4.304 65.448C5.02933 65.8427 5.83467 66.04 6.72 66.04ZM22.5899 58.584V67H21.5019V65.464C21.2032 65.976 20.7925 66.376 20.2699 66.664C19.7472 66.9413 19.1499 67.08 18.4779 67.08C17.3792 67.08 16.5099 66.776 15.8699 66.168C15.2405 65.5493 14.9259 64.648 14.9259 63.464V58.584H16.0619V63.352C16.0619 64.2373 16.2805 64.9093 16.7179 65.368C17.1552 65.8267 17.7792 66.056 18.5899 66.056C19.4752 66.056 20.1739 65.7893 20.6859 65.256C21.1979 64.712 21.4539 63.96 21.4539 63V58.584H22.5899ZM26.8595 60.232C27.1262 59.6667 27.5208 59.24 28.0435 58.952C28.5768 58.664 29.2328 58.52 30.0115 58.52V59.624L29.7395 59.608C28.8542 59.608 28.1608 59.88 27.6595 60.424C27.1582 60.968 26.9075 61.7307 26.9075 62.712V67H25.7715V58.584H26.8595V60.232ZM40.7169 58.52C41.5062 58.52 42.2209 58.7013 42.8609 59.064C43.5009 59.416 44.0022 59.9173 44.3649 60.568C44.7275 61.2187 44.9089 61.96 44.9089 62.792C44.9089 63.6347 44.7275 64.3813 44.3649 65.032C44.0022 65.6827 43.5009 66.1893 42.8609 66.552C42.2315 66.904 41.5169 67.08 40.7169 67.08C40.0342 67.08 39.4155 66.9413 38.8609 66.664C38.3169 66.376 37.8689 65.96 37.5169 65.416V70.104H36.3809V58.584H37.4689V60.248C37.8102 59.6933 38.2582 59.2667 38.8129 58.968C39.3782 58.6693 40.0129 58.52 40.7169 58.52ZM40.6369 66.072C41.2235 66.072 41.7569 65.9387 42.2369 65.672C42.7169 65.3947 43.0902 65.0053 43.3569 64.504C43.6342 64.0027 43.7729 63.432 43.7729 62.792C43.7729 62.152 43.6342 61.5867 43.3569 61.096C43.0902 60.5947 42.7169 60.2053 42.2369 59.928C41.7569 59.6507 41.2235 59.512 40.6369 59.512C40.0395 59.512 39.5009 59.6507 39.0209 59.928C38.5515 60.2053 38.1782 60.5947 37.9009 61.096C37.6342 61.5867 37.5009 62.152 37.5009 62.792C37.5009 63.432 37.6342 64.0027 37.9009 64.504C38.1782 65.0053 38.5515 65.3947 39.0209 65.672C39.5009 65.9387 40.0395 66.072 40.6369 66.072ZM48.3126 60.232C48.5793 59.6667 48.974 59.24 49.4966 58.952C50.03 58.664 50.686 58.52 51.4646 58.52V59.624L51.1926 59.608C50.3073 59.608 49.614 59.88 49.1126 60.424C48.6113 60.968 48.3606 61.7307 48.3606 62.712V67H47.2246V58.584H48.3126V60.232ZM56.8834 67.08C56.0727 67.08 55.342 66.8987 54.6914 66.536C54.0407 66.1627 53.5287 65.6507 53.1554 65C52.782 64.3493 52.5954 63.6133 52.5954 62.792C52.5954 61.9707 52.782 61.2347 53.1554 60.584C53.5287 59.9333 54.0407 59.4267 54.6914 59.064C55.342 58.7013 56.0727 58.52 56.8834 58.52C57.694 58.52 58.4247 58.7013 59.0754 59.064C59.726 59.4267 60.2327 59.9333 60.5954 60.584C60.9687 61.2347 61.1554 61.9707 61.1554 62.792C61.1554 63.6133 60.9687 64.3493 60.5954 65C60.2327 65.6507 59.726 66.1627 59.0754 66.536C58.4247 66.8987 57.694 67.08 56.8834 67.08ZM56.8834 66.072C57.4807 66.072 58.014 65.9387 58.4834 65.672C58.9634 65.3947 59.3367 65.0053 59.6034 64.504C59.87 64.0027 60.0034 63.432 60.0034 62.792C60.0034 62.152 59.87 61.5813 59.6034 61.08C59.3367 60.5787 58.9634 60.1947 58.4834 59.928C58.014 59.6507 57.4807 59.512 56.8834 59.512C56.286 59.512 55.7474 59.6507 55.2674 59.928C54.798 60.1947 54.4247 60.5787 54.1474 61.08C53.8807 61.5813 53.7474 62.152 53.7474 62.792C53.7474 63.432 53.8807 64.0027 54.1474 64.504C54.4247 65.0053 54.798 65.3947 55.2674 65.672C55.7474 65.9387 56.286 66.072 56.8834 66.072ZM62.2266 70.184C61.8746 70.184 61.544 70.136 61.2346 70.04C60.9146 69.9547 60.6533 69.8213 60.4506 69.64L60.8506 68.776C61.1813 69.064 61.6186 69.208 62.1626 69.208C62.6106 69.208 62.952 69.0747 63.1866 68.808C63.432 68.5413 63.5546 68.1467 63.5546 67.624V58.584H64.6906V67.624C64.6906 68.4133 64.4773 69.0373 64.0506 69.496C63.624 69.9547 63.016 70.184 62.2266 70.184ZM64.1306 56.728C63.896 56.728 63.6986 56.648 63.5386 56.488C63.3786 56.328 63.2986 56.136 63.2986 55.912C63.2986 55.6987 63.3786 55.512 63.5386 55.352C63.6986 55.192 63.896 55.112 64.1306 55.112C64.3653 55.112 64.5626 55.192 64.7226 55.352C64.8826 55.5013 64.9626 55.6827 64.9626 55.896C64.9626 56.1307 64.8826 56.328 64.7226 56.488C64.5626 56.648 64.3653 56.728 64.1306 56.728ZM75.1933 63.144H68.1533C68.2173 64.0187 68.5533 64.728 69.1613 65.272C69.7693 65.8053 70.5373 66.072 71.4653 66.072C71.9879 66.072 72.4679 65.9813 72.9053 65.8C73.3426 65.608 73.7213 65.3307 74.0413 64.968L74.6813 65.704C74.3079 66.152 73.8386 66.4933 73.2733 66.728C72.7186 66.9627 72.1053 67.08 71.4333 67.08C70.5693 67.08 69.8013 66.8987 69.1293 66.536C68.4679 66.1627 67.9506 65.6507 67.5773 65C67.2039 64.3493 67.0173 63.6133 67.0173 62.792C67.0173 61.9707 67.1933 61.2347 67.5453 60.584C67.9079 59.9333 68.3986 59.4267 69.0173 59.064C69.6466 58.7013 70.3506 58.52 71.1293 58.52C71.9079 58.52 72.6066 58.7013 73.2253 59.064C73.8439 59.4267 74.3293 59.9333 74.6813 60.584C75.0333 61.224 75.2093 61.96 75.2093 62.792L75.1933 63.144ZM71.1293 59.496C70.3186 59.496 69.6359 59.7573 69.0813 60.28C68.5373 60.792 68.2279 61.464 68.1533 62.296H74.1213C74.0466 61.464 73.7319 60.792 73.1773 60.28C72.6333 59.7573 71.9506 59.496 71.1293 59.496ZM81.0095 67.08C80.1775 67.08 79.4308 66.8987 78.7695 66.536C78.1188 66.1733 77.6068 65.6667 77.2335 65.016C76.8602 64.3547 76.6735 63.6133 76.6735 62.792C76.6735 61.9707 76.8602 61.2347 77.2335 60.584C77.6068 59.9333 78.1188 59.4267 78.7695 59.064C79.4308 58.7013 80.1775 58.52 81.0095 58.52C81.7348 58.52 82.3802 58.664 82.9455 58.952C83.5215 59.2293 83.9748 59.64 84.3055 60.184L83.4575 60.76C83.1802 60.344 82.8282 60.0347 82.4015 59.832C81.9748 59.6187 81.5108 59.512 81.0095 59.512C80.4015 59.512 79.8522 59.6507 79.3615 59.928C78.8815 60.1947 78.5028 60.5787 78.2255 61.08C77.9588 61.5813 77.8255 62.152 77.8255 62.792C77.8255 63.4427 77.9588 64.0187 78.2255 64.52C78.5028 65.0107 78.8815 65.3947 79.3615 65.672C79.8522 65.9387 80.4015 66.072 81.0095 66.072C81.5108 66.072 81.9748 65.9707 82.4015 65.768C82.8282 65.5653 83.1802 65.256 83.4575 64.84L84.3055 65.416C83.9748 65.96 83.5215 66.376 82.9455 66.664C82.3695 66.9413 81.7242 67.08 81.0095 67.08ZM91.0629 66.488C90.8495 66.68 90.5829 66.8293 90.2629 66.936C89.9535 67.032 89.6282 67.08 89.2869 67.08C88.4975 67.08 87.8895 66.8667 87.4629 66.44C87.0362 66.0133 86.8229 65.4107 86.8229 64.632V59.544H85.3189V58.584H86.8229V56.744H87.9589V58.584H90.5189V59.544H87.9589V64.568C87.9589 65.0693 88.0815 65.4533 88.3269 65.72C88.5829 65.976 88.9455 66.104 89.4149 66.104C89.6495 66.104 89.8735 66.0667 90.0869 65.992C90.3109 65.9173 90.5029 65.8107 90.6629 65.672L91.0629 66.488ZM95.3869 67.08C94.7042 67.08 94.0482 66.984 93.4189 66.792C92.8002 66.5893 92.3149 66.3387 91.9629 66.04L92.4749 65.144C92.8269 65.4213 93.2695 65.6507 93.8029 65.832C94.3362 66.0027 94.8909 66.088 95.4669 66.088C96.2349 66.088 96.8002 65.9707 97.1629 65.736C97.5362 65.4907 97.7229 65.1493 97.7229 64.712C97.7229 64.4027 97.6215 64.1627 97.4189 63.992C97.2162 63.8107 96.9602 63.6773 96.6509 63.592C96.3415 63.496 95.9309 63.4053 95.4189 63.32C94.7362 63.192 94.1869 63.064 93.7709 62.936C93.3549 62.7973 92.9975 62.568 92.6989 62.248C92.4109 61.928 92.2669 61.4853 92.2669 60.92C92.2669 60.216 92.5602 59.64 93.1469 59.192C93.7335 58.744 94.5495 58.52 95.5949 58.52C96.1389 58.52 96.6829 58.5947 97.2269 58.744C97.7709 58.8827 98.2189 59.0693 98.5709 59.304L98.0749 60.216C97.3815 59.736 96.5549 59.496 95.5949 59.496C94.8695 59.496 94.3202 59.624 93.9469 59.88C93.5842 60.136 93.4029 60.472 93.4029 60.888C93.4029 61.208 93.5042 61.464 93.7069 61.656C93.9202 61.848 94.1815 61.992 94.4909 62.088C94.8002 62.1733 95.2269 62.264 95.7709 62.36C96.4429 62.488 96.9815 62.616 97.3869 62.744C97.7922 62.872 98.1389 63.0907 98.4269 63.4C98.7149 63.7093 98.8589 64.136 98.8589 64.68C98.8589 65.416 98.5495 66.0027 97.9309 66.44C97.3229 66.8667 96.4749 67.08 95.3869 67.08Z" fill="#999999"/>
<path d="M11.8364 28.0235C11.7231 28.0235 11.609 27.9845 11.5158 27.9052L8.31084 25.1762C8.20029 25.082 8.13672 24.9443 8.13672 24.799C8.13672 24.6539 8.20056 24.5162 8.31084 24.422L11.5158 21.693C11.7239 21.5155 12.0365 21.5407 12.214 21.7488C12.3911 21.9572 12.3663 22.2698 12.1579 22.4469L9.39594 24.799L12.1579 27.151C12.3663 27.3284 12.3911 27.641 12.214 27.8491C12.1159 27.9644 11.9766 28.0235 11.8364 28.0235Z" fill="#4985FF"/>
<path d="M18.1635 28.0235C18.0234 28.0235 17.8841 27.9644 17.7862 27.8491C17.6088 27.641 17.6339 27.3284 17.8421 27.151L20.604 24.799L17.8421 22.4469C17.6339 22.2698 17.6088 21.9572 17.7862 21.7488C17.9634 21.5407 18.2763 21.5155 18.4841 21.693L21.6891 24.422C21.7996 24.5162 21.8632 24.6539 21.8632 24.799C21.8632 24.9443 21.7996 25.082 21.6891 25.1762L18.4841 27.9052C18.391 27.9845 18.2768 28.0235 18.1635 28.0235Z" fill="#4985FF"/>
<path d="M13.8652 30.0706C13.8312 30.0706 13.7969 30.067 13.7624 30.0598C13.4949 30.0034 13.3235 29.7406 13.3799 29.473L15.3773 19.9894C15.4337 19.7219 15.6963 19.5505 15.9641 19.6069C16.2317 19.6633 16.403 19.9259 16.3466 20.1937L14.3492 29.6773C14.3 29.9105 14.0943 30.0706 13.8652 30.0706Z" fill="#4985FF"/>
<path d="M26.6745 35.2374H3.32547C1.49193 35.2374 0 33.7457 0 31.9119V12.0945C0 10.261 1.49193 8.76904 3.32547 8.76904H26.6745C28.5081 8.76904 30 10.261 30 12.0945V31.9119C30 33.7457 28.5081 35.2374 26.6745 35.2374ZM3.32547 9.75961C2.03807 9.75961 0.990566 10.8071 0.990566 12.0945V31.9119C0.990566 33.1993 2.03807 34.2468 3.32547 34.2468H26.6745C27.9619 34.2468 29.0094 33.1993 29.0094 31.9119V12.0945C29.0094 10.8071 27.9619 9.75961 26.6745 9.75961H3.32547Z" fill="#4985FF"/>
<path d="M29.5047 16.6996H0.495283C0.221661 16.6996 0 16.4779 0 16.2043C0 15.9309 0.221661 15.709 0.495283 15.709H29.5047C29.7783 15.709 30 15.9309 30 16.2043C30 16.4779 29.7783 16.6996 29.5047 16.6996Z" fill="#4985FF"/>
<path d="M8.46191 14.3296C7.59793 14.3296 6.89453 13.6262 6.89453 12.7622C6.89453 11.8979 7.59793 11.1948 8.46191 11.1948C9.32617 11.1948 10.0293 11.8979 10.0293 12.7622C10.0293 13.6262 9.32617 14.3296 8.46191 14.3296ZM8.46191 12.1854C8.14407 12.1854 7.8851 12.4441 7.8851 12.7622C7.8851 13.0803 8.14407 13.339 8.46191 13.339C8.78003 13.339 9.03873 13.0803 9.03873 12.7622C9.03873 12.4441 8.78003 12.1854 8.46191 12.1854Z" fill="#4985FF"/>
<path d="M3.64746 14.3145C2.7832 14.3145 2.08008 13.6113 2.08008 12.7471C2.08008 11.8828 2.7832 11.1797 3.64746 11.1797C4.51171 11.1797 5.21484 11.8828 5.21484 12.7471C5.21484 13.6113 4.51171 14.3145 3.64746 14.3145ZM3.64746 12.1703C3.32962 12.1703 3.07064 12.4292 3.07064 12.7471C3.07064 13.0652 3.32962 13.3239 3.64746 13.3239C3.96558 13.3239 4.22427 13.0652 4.22427 12.7471C4.22427 12.4292 3.96558 12.1703 3.64746 12.1703Z" fill="#4985FF"/>
<path d="M13.278 14.3445C12.4141 14.3445 11.7109 13.6413 11.7109 12.7771C11.7109 11.9131 12.4141 11.21 13.278 11.21C14.1423 11.21 14.8454 11.9131 14.8454 12.7771C14.8454 13.6413 14.1423 14.3445 13.278 14.3445ZM13.278 12.2003C12.9602 12.2003 12.7015 12.4589 12.7015 12.7771C12.7015 13.0952 12.9602 13.3539 13.278 13.3539C13.5962 13.3539 13.8549 13.0952 13.8549 12.7771C13.8549 12.4589 13.5962 12.2003 13.278 12.2003Z" fill="#4985FF"/>
</svg>
